STARTFONT 2.1
FONT -Sun-Screen-Medium-R-Normal--7-70-72-72-M-60-SUN-FONTSPECIFIC
SIZE 7 72 72
FONTBOUNDINGBOX 6 7 0 -1

STARTPROPERTIES 21
FONTNAME_REGISTRY ""
FOUNDRY "Sun"
FAMILY_NAME "Screen"
WEIGHT_NAME "Medium"
SLANT "R"
SETWIDTH_NAME "Normal"
ADD_STYLE_NAME ""
PIXEL_SIZE 7
POINT_SIZE 70
RESOLUTION_X 72
RESOLUTION_Y 72
SPACING "M"
AVERAGE_WIDTH 60
CHARSET_REGISTRY "SUN"
CHARSET_ENCODING "FONTSPECIFIC"
WEIGHT 10
X_HEIGHT 0
QUAD_WIDTH 6
DEFAULT_CHAR 32
FONT_DESCENT 1
FONT_ASCENT 6
ENDPROPERTIES

CHARS 95

STARTCHAR <unknown>
ENCODING 32
SWIDTH 42 0
DWIDTH 6 0
BBX 6 7 0 -1
BITMAP
00
00
00
00
00
00
00
ENDCHAR

STARTCHAR <unknown>
ENCODING 33
SWIDTH 42 0
DWIDTH 6 0
BBX 6 7 0 -1
BITMAP
10
10
10
10
00
10
00
ENDCHAR

STARTCHAR <unknown>
ENCODING 34
SWIDTH 42 0
DWIDTH 6 0
BBX 6 7 0 -1
BITMAP
28
28
28
00
00
00
00
ENDCHAR

STARTCHAR <unknown>
ENCODING 35
SWIDTH 42 0
DWIDTH 6 0
BBX 6 7 0 -1
BITMAP
28
7C
28
28
7C
28
00
ENDCHAR

STARTCHAR <unknown>
ENCODING 36
SWIDTH 42 0
DWIDTH 6 0
BBX 6 7 0 -1
BITMAP
10
3C
50
38
14
78
10
ENDCHAR

STARTCHAR <unknown>
ENCODING 37
SWIDTH 42 0
DWIDTH 6 0
BBX 6 7 0 -1
BITMAP
7C
64
08
10
2C
4C
00
ENDCHAR

STARTCHAR <unknown>
ENCODING 38
SWIDTH 42 0
DWIDTH 6 0
BBX 6 7 0 -1
BITMAP
30
50
20
54
48
74
00
ENDCHAR

STARTCHAR <unknown>
ENCODING 39
SWIDTH 42 0
DWIDTH 6 0
BBX 6 7 0 -1
BITMAP
08
08
10
00
00
00
00
ENDCHAR

STARTCHAR <unknown>
ENCODING 40
SWIDTH 42 0
DWIDTH 6 0
BBX 6 7 0 -1
BITMAP
10
20
40
40
40
20
10
ENDCHAR

STARTCHAR <unknown>
ENCODING 41
SWIDTH 42 0
DWIDTH 6 0
BBX 6 7 0 -1
BITMAP
20
10
08
08
08
10
20
ENDCHAR

STARTCHAR <unknown>
ENCODING 42
SWIDTH 42 0
DWIDTH 6 0
BBX 6 7 0 -1
BITMAP
00
54
38
6C
38
54
00
ENDCHAR

STARTCHAR <unknown>
ENCODING 43
SWIDTH 42 0
DWIDTH 6 0
BBX 6 7 0 -1
BITMAP
00
10
10
7C
10
10
00
ENDCHAR

STARTCHAR <unknown>
ENCODING 44
SWIDTH 42 0
DWIDTH 6 0
BBX 6 7 0 -1
BITMAP
00
00
00
00
10
10
20
ENDCHAR

STARTCHAR <unknown>
ENCODING 45
SWIDTH 42 0
DWIDTH 6 0
BBX 6 7 0 -1
BITMAP
00
00
00
78
00
00
00
ENDCHAR

STARTCHAR <unknown>
ENCODING 46
SWIDTH 42 0
DWIDTH 6 0
BBX 6 7 0 -1
BITMAP
00
00
00
00
10
10
00
ENDCHAR

STARTCHAR <unknown>
ENCODING 47
SWIDTH 42 0
DWIDTH 6 0
BBX 6 7 0 -1
BITMAP
08
10
10
20
20
40
00
ENDCHAR

STARTCHAR <unknown>
ENCODING 48
SWIDTH 42 0
DWIDTH 6 0
BBX 6 7 0 -1
BITMAP
30
48
58
68
48
30
00
ENDCHAR

STARTCHAR <unknown>
ENCODING 49
SWIDTH 42 0
DWIDTH 6 0
BBX 6 7 0 -1
BITMAP
10
30
10
10
10
38
00
ENDCHAR

STARTCHAR <unknown>
ENCODING 50
SWIDTH 42 0
DWIDTH 6 0
BBX 6 7 0 -1
BITMAP
30
48
08
30
40
78
00
ENDCHAR

STARTCHAR <unknown>
ENCODING 51
SWIDTH 42 0
DWIDTH 6 0
BBX 6 7 0 -1
BITMAP
30
48
10
08
48
30
00
ENDCHAR

STARTCHAR <unknown>
ENCODING 52
SWIDTH 42 0
DWIDTH 6 0
BBX 6 7 0 -1
BITMAP
10
30
50
78
10
10
00
ENDCHAR

STARTCHAR <unknown>
ENCODING 53
SWIDTH 42 0
DWIDTH 6 0
BBX 6 7 0 -1
BITMAP
78
40
70
08
48
30
00
ENDCHAR

STARTCHAR <unknown>
ENCODING 54
SWIDTH 42 0
DWIDTH 6 0
BBX 6 7 0 -1
BITMAP
30
40
70
48
48
30
00
ENDCHAR

STARTCHAR <unknown>
ENCODING 55
SWIDTH 42 0
DWIDTH 6 0
BBX 6 7 0 -1
BITMAP
78
08
10
10
20
20
00
ENDCHAR

STARTCHAR <unknown>
ENCODING 56
SWIDTH 42 0
DWIDTH 6 0
BBX 6 7 0 -1
BITMAP
30
48
30
48
48
30
00
ENDCHAR

STARTCHAR <unknown>
ENCODING 57
SWIDTH 42 0
DWIDTH 6 0
BBX 6 7 0 -1
BITMAP
30
48
48
38
08
30
00
ENDCHAR

STARTCHAR <unknown>
ENCODING 58
SWIDTH 42 0
DWIDTH 6 0
BBX 6 7 0 -1
BITMAP
00
10
10
00
10
10
00
ENDCHAR

STARTCHAR <unknown>
ENCODING 59
SWIDTH 42 0
DWIDTH 6 0
BBX 6 7 0 -1
BITMAP
00
20
20
00
20
20
40
ENDCHAR

STARTCHAR <unknown>
ENCODING 60
SWIDTH 42 0
DWIDTH 6 0
BBX 6 7 0 -1
BITMAP
00
08
10
20
10
08
00
ENDCHAR

STARTCHAR <unknown>
ENCODING 61
SWIDTH 42 0
DWIDTH 6 0
BBX 6 7 0 -1
BITMAP
00
00
78
00
78
00
00
ENDCHAR

STARTCHAR <unknown>
ENCODING 62
SWIDTH 42 0
DWIDTH 6 0
BBX 6 7 0 -1
BITMAP
00
20
10
08
10
20
00
ENDCHAR

STARTCHAR <unknown>
ENCODING 63
SWIDTH 42 0
DWIDTH 6 0
BBX 6 7 0 -1
BITMAP
30
48
08
30
00
20
00
ENDCHAR

STARTCHAR <unknown>
ENCODING 64
SWIDTH 42 0
DWIDTH 6 0
BBX 6 7 0 -1
BITMAP
38
44
5C
5C
40
38
00
ENDCHAR

STARTCHAR <unknown>
ENCODING 65
SWIDTH 42 0
DWIDTH 6 0
BBX 6 7 0 -1
BITMAP
30
48
48
78
48
48
00
ENDCHAR

STARTCHAR <unknown>
ENCODING 66
SWIDTH 42 0
DWIDTH 6 0
BBX 6 7 0 -1
BITMAP
70
48
70
48
48
70
00
ENDCHAR

STARTCHAR <unknown>
ENCODING 67
SWIDTH 42 0
DWIDTH 6 0
BBX 6 7 0 -1
BITMAP
30
48
40
40
48
30
00
ENDCHAR

STARTCHAR <unknown>
ENCODING 68
SWIDTH 42 0
DWIDTH 6 0
BBX 6 7 0 -1
BITMAP
70
48
48
48
48
70
00
ENDCHAR

STARTCHAR <unknown>
ENCODING 69
SWIDTH 42 0
DWIDTH 6 0
BBX 6 7 0 -1
BITMAP
78
40
70
40
40
78
00
ENDCHAR

STARTCHAR <unknown>
ENCODING 70
SWIDTH 42 0
DWIDTH 6 0
BBX 6 7 0 -1
BITMAP
78
40
70
40
40
40
00
ENDCHAR

STARTCHAR <unknown>
ENCODING 71
SWIDTH 42 0
DWIDTH 6 0
BBX 6 7 0 -1
BITMAP
30
48
40
58
48
30
00
ENDCHAR

STARTCHAR <unknown>
ENCODING 72
SWIDTH 42 0
DWIDTH 6 0
BBX 6 7 0 -1
BITMAP
48
48
78
48
48
48
00
ENDCHAR

STARTCHAR <unknown>
ENCODING 73
SWIDTH 42 0
DWIDTH 6 0
BBX 6 7 0 -1
BITMAP
38
10
10
10
10
38
00
ENDCHAR

STARTCHAR <unknown>
ENCODING 74
SWIDTH 42 0
DWIDTH 6 0
BBX 6 7 0 -1
BITMAP
38
08
08
08
48
30
00
ENDCHAR

STARTCHAR <unknown>
ENCODING 75
SWIDTH 42 0
DWIDTH 6 0
BBX 6 7 0 -1
BITMAP
44
48
50
70
48
44
00
ENDCHAR

STARTCHAR <unknown>
ENCODING 76
SWIDTH 42 0
DWIDTH 6 0
BBX 6 7 0 -1
BITMAP
40
40
40
40
40
78
00
ENDCHAR

STARTCHAR <unknown>
ENCODING 77
SWIDTH 42 0
DWIDTH 6 0
BBX 6 7 0 -1
BITMAP
44
6C
54
54
44
44
00
ENDCHAR

STARTCHAR <unknown>
ENCODING 78
SWIDTH 42 0
DWIDTH 6 0
BBX 6 7 0 -1
BITMAP
44
64
54
4C
44
44
00
ENDCHAR

STARTCHAR <unknown>
ENCODING 79
SWIDTH 42 0
DWIDTH 6 0
BBX 6 7 0 -1
BITMAP
30
48
48
48
48
30
00
ENDCHAR

STARTCHAR <unknown>
ENCODING 80
SWIDTH 42 0
DWIDTH 6 0
BBX 6 7 0 -1
BITMAP
70
48
48
70
40
40
00
ENDCHAR

STARTCHAR <unknown>
ENCODING 81
SWIDTH 42 0
DWIDTH 6 0
BBX 6 7 0 -1
BITMAP
38
44
44
54
4C
38
04
ENDCHAR

STARTCHAR <unknown>
ENCODING 82
SWIDTH 42 0
DWIDTH 6 0
BBX 6 7 0 -1
BITMAP
70
48
48
70
50
48
00
ENDCHAR

STARTCHAR <unknown>
ENCODING 83
SWIDTH 42 0
DWIDTH 6 0
BBX 6 7 0 -1
BITMAP
30
48
20
10
48
30
00
ENDCHAR

STARTCHAR <unknown>
ENCODING 84
SWIDTH 42 0
DWIDTH 6 0
BBX 6 7 0 -1
BITMAP
7C
10
10
10
10
10
00
ENDCHAR

STARTCHAR <unknown>
ENCODING 85
SWIDTH 42 0
DWIDTH 6 0
BBX 6 7 0 -1
BITMAP
48
48
48
48
48
30
00
ENDCHAR

STARTCHAR <unknown>
ENCODING 86
SWIDTH 42 0
DWIDTH 6 0
BBX 6 7 0 -1
BITMAP
44
44
44
28
28
10
00
ENDCHAR

STARTCHAR <unknown>
ENCODING 87
SWIDTH 42 0
DWIDTH 6 0
BBX 6 7 0 -1
BITMAP
44
44
54
54
6C
44
00
ENDCHAR

STARTCHAR <unknown>
ENCODING 88
SWIDTH 42 0
DWIDTH 6 0
BBX 6 7 0 -1
BITMAP
44
28
10
28
44
44
00
ENDCHAR

STARTCHAR <unknown>
ENCODING 89
SWIDTH 42 0
DWIDTH 6 0
BBX 6 7 0 -1
BITMAP
44
44
38
10
10
10
00
ENDCHAR

STARTCHAR <unknown>
ENCODING 90
SWIDTH 42 0
DWIDTH 6 0
BBX 6 7 0 -1
BITMAP
78
08
10
20
40
78
00
ENDCHAR

STARTCHAR <unknown>
ENCODING 91
SWIDTH 42 0
DWIDTH 6 0
BBX 6 7 0 -1
BITMAP
38
20
20
20
20
20
38
ENDCHAR

STARTCHAR <unknown>
ENCODING 92
SWIDTH 42 0
DWIDTH 6 0
BBX 6 7 0 -1
BITMAP
40
20
20
10
10
08
00
ENDCHAR

STARTCHAR <unknown>
ENCODING 93
SWIDTH 42 0
DWIDTH 6 0
BBX 6 7 0 -1
BITMAP
38
08
08
08
08
08
38
ENDCHAR

STARTCHAR <unknown>
ENCODING 94
SWIDTH 42 0
DWIDTH 6 0
BBX 6 7 0 -1
BITMAP
10
28
44
00
00
00
00
ENDCHAR

STARTCHAR <unknown>
ENCODING 95
SWIDTH 42 0
DWIDTH 6 0
BBX 6 7 0 -1
BITMAP
00
00
00
00
00
00
78
ENDCHAR

STARTCHAR <unknown>
ENCODING 96
SWIDTH 42 0
DWIDTH 6 0
BBX 6 7 0 -1
BITMAP
10
10
08
00
00
00
00
ENDCHAR

STARTCHAR <unknown>
ENCODING 97
SWIDTH 42 0
DWIDTH 6 0
BBX 6 7 0 -1
BITMAP
00
30
08
38
48
28
00
ENDCHAR

STARTCHAR <unknown>
ENCODING 98
SWIDTH 42 0
DWIDTH 6 0
BBX 6 7 0 -1
BITMAP
40
70
48
48
48
70
00
ENDCHAR

STARTCHAR <unknown>
ENCODING 99
SWIDTH 42 0
DWIDTH 6 0
BBX 6 7 0 -1
BITMAP
00
38
40
40
40
38
00
ENDCHAR

STARTCHAR <unknown>
ENCODING 100
SWIDTH 42 0
DWIDTH 6 0
BBX 6 7 0 -1
BITMAP
08
38
48
48
48
38
00
ENDCHAR

STARTCHAR <unknown>
ENCODING 101
SWIDTH 42 0
DWIDTH 6 0
BBX 6 7 0 -1
BITMAP
00
30
48
70
40
38
00
ENDCHAR

STARTCHAR <unknown>
ENCODING 102
SWIDTH 42 0
DWIDTH 6 0
BBX 6 7 0 -1
BITMAP
18
20
70
20
20
20
00
ENDCHAR

STARTCHAR <unknown>
ENCODING 103
SWIDTH 42 0
DWIDTH 6 0
BBX 6 7 0 -1
BITMAP
00
38
48
48
38
08
70
ENDCHAR

STARTCHAR <unknown>
ENCODING 104
SWIDTH 42 0
DWIDTH 6 0
BBX 6 7 0 -1
BITMAP
40
50
68
48
48
48
00
ENDCHAR

STARTCHAR <unknown>
ENCODING 105
SWIDTH 42 0
DWIDTH 6 0
BBX 6 7 0 -1
BITMAP
10
00
30
10
10
10
00
ENDCHAR

STARTCHAR <unknown>
ENCODING 106
SWIDTH 42 0
DWIDTH 6 0
BBX 6 7 0 -1
BITMAP
10
00
30
10
10
10
60
ENDCHAR

STARTCHAR <unknown>
ENCODING 107
SWIDTH 42 0
DWIDTH 6 0
BBX 6 7 0 -1
BITMAP
40
48
50
60
50
48
00
ENDCHAR

STARTCHAR <unknown>
ENCODING 108
SWIDTH 42 0
DWIDTH 6 0
BBX 6 7 0 -1
BITMAP
30
10
10
10
10
10
00
ENDCHAR

STARTCHAR <unknown>
ENCODING 109
SWIDTH 42 0
DWIDTH 6 0
BBX 6 7 0 -1
BITMAP
00
68
54
54
54
54
00
ENDCHAR

STARTCHAR <unknown>
ENCODING 110
SWIDTH 42 0
DWIDTH 6 0
BBX 6 7 0 -1
BITMAP
00
50
68
48
48
48
00
ENDCHAR

STARTCHAR <unknown>
ENCODING 111
SWIDTH 42 0
DWIDTH 6 0
BBX 6 7 0 -1
BITMAP
00
30
48
48
48
30
00
ENDCHAR

STARTCHAR <unknown>
ENCODING 112
SWIDTH 42 0
DWIDTH 6 0
BBX 6 7 0 -1
BITMAP
00
50
68
48
68
50
40
ENDCHAR

STARTCHAR <unknown>
ENCODING 113
SWIDTH 42 0
DWIDTH 6 0
BBX 6 7 0 -1
BITMAP
00
28
58
48
58
28
08
ENDCHAR

STARTCHAR <unknown>
ENCODING 114
SWIDTH 42 0
DWIDTH 6 0
BBX 6 7 0 -1
BITMAP
00
50
68
40
40
40
00
ENDCHAR

STARTCHAR <unknown>
ENCODING 115
SWIDTH 42 0
DWIDTH 6 0
BBX 6 7 0 -1
BITMAP
00
38
40
30
08
70
00
ENDCHAR

STARTCHAR <unknown>
ENCODING 116
SWIDTH 42 0
DWIDTH 6 0
BBX 6 7 0 -1
BITMAP
20
78
20
20
20
18
00
ENDCHAR

STARTCHAR <unknown>
ENCODING 117
SWIDTH 42 0
DWIDTH 6 0
BBX 6 7 0 -1
BITMAP
00
48
48
48
58
28
00
ENDCHAR

STARTCHAR <unknown>
ENCODING 118
SWIDTH 42 0
DWIDTH 6 0
BBX 6 7 0 -1
BITMAP
00
44
44
28
28
10
00
ENDCHAR

STARTCHAR <unknown>
ENCODING 119
SWIDTH 42 0
DWIDTH 6 0
BBX 6 7 0 -1
BITMAP
00
44
44
54
54
28
00
ENDCHAR

STARTCHAR <unknown>
ENCODING 120
SWIDTH 42 0
DWIDTH 6 0
BBX 6 7 0 -1
BITMAP
00
44
28
10
28
44
00
ENDCHAR

STARTCHAR <unknown>
ENCODING 121
SWIDTH 42 0
DWIDTH 6 0
BBX 6 7 0 -1
BITMAP
00
48
48
48
38
08
70
ENDCHAR

STARTCHAR <unknown>
ENCODING 122
SWIDTH 42 0
DWIDTH 6 0
BBX 6 7 0 -1
BITMAP
00
78
08
10
20
78
00
ENDCHAR

STARTCHAR <unknown>
ENCODING 123
SWIDTH 42 0
DWIDTH 6 0
BBX 6 7 0 -1
BITMAP
18
20
20
40
20
20
18
ENDCHAR

STARTCHAR <unknown>
ENCODING 124
SWIDTH 42 0
DWIDTH 6 0
BBX 6 7 0 -1
BITMAP
10
10
10
10
10
10
10
ENDCHAR

STARTCHAR <unknown>
ENCODING 125
SWIDTH 42 0
DWIDTH 6 0
BBX 6 7 0 -1
BITMAP
60
10
10
08
10
10
60
ENDCHAR

STARTCHAR <unknown>
ENCODING 126
SWIDTH 42 0
DWIDTH 6 0
BBX 6 7 0 -1
BITMAP
00
20
54
08
00
00
00
ENDCHAR
ENDFONT
